<svg xmlns="http://www.w3.org/2000/svg" viewBox="0 0 240 148" width="240" height="148" role="img" aria-hidden="true"><style>.mono{font-family:'JetBrains Mono','SF Mono',ui-monospace,SFMono-Regular,Menlo,Consolas,'Liberation Mono','DejaVu Sans Mono',monospace}</style><rect x="0.5" y="0.5" width="239" height="147" rx="8" fill="#070A11" stroke="#1B2635"/><rect x="11" y="55" width="28" height="18" rx="5" fill="none" stroke="#3A4B63" stroke-width="1"/><text class="mono" x="25" y="67.0" text-anchor="middle" font-size="8" fill="#6B7A8D">HEAD</text><rect x="49" y="50" width="28" height="28" rx="5" fill="#0E1B2B" stroke="#7FDBFF" stroke-width="1.1"/><text class="mono" x="63" y="68.0" text-anchor="middle" font-size="11" fill="#EEF3F9" opacity="0.85">A</text><rect x="87" y="50" width="28" height="28" rx="5" fill="#0A0F18" stroke="#3A4B63" stroke-width="1.1"/><text class="mono" x="101" y="68.0" text-anchor="middle" font-size="11" fill="#EEF3F9" opacity="0.85">B</text><rect x="125" y="50" width="28" height="28" rx="5" fill="#0A0F18" stroke="#3A4B63" stroke-width="1.1"/><text class="mono" x="139" y="68.0" text-anchor="middle" font-size="11" fill="#EEF3F9" opacity="0.85">C</text><rect x="163" y="50" width="28" height="28" rx="5" fill="#0A0F18" stroke="#9B8AFB" stroke-width="1.1" stroke-dasharray="3 3"/><text class="mono" x="177" y="68.0" text-anchor="middle" font-size="11" fill="#EEF3F9" opacity="0.85">D</text><rect x="201" y="55" width="28" height="18" rx="5" fill="none" stroke="#3A4B63" stroke-width="1"/><text class="mono" x="215" y="67.0" text-anchor="middle" font-size="8" fill="#6B7A8D">TAIL</text><path d="M40.5 61.8H47.5M40.5 66.2H47.5" stroke="#4B5C74" stroke-width="0.9"/><path d="M47.5 61.8l-2.6 -1.6v3.2zM40.5 66.2l2.6 -1.6v3.2z" fill="#4B5C74"/><path d="M78.5 61.8H85.5M78.5 66.2H85.5" stroke="#4B5C74" stroke-width="0.9"/><path d="M85.5 61.8l-2.6 -1.6v3.2zM78.5 66.2l2.6 -1.6v3.2z" fill="#4B5C74"/><path d="M116.5 61.8H123.5M116.5 66.2H123.5" stroke="#4B5C74" stroke-width="0.9"/><path d="M123.5 61.8l-2.6 -1.6v3.2zM116.5 66.2l2.6 -1.6v3.2z" fill="#4B5C74"/><path d="M154.5 61.8H161.5M154.5 66.2H161.5" stroke="#4B5C74" stroke-width="0.9"/><path d="M161.5 61.8l-2.6 -1.6v3.2zM154.5 66.2l2.6 -1.6v3.2z" fill="#4B5C74"/><path d="M192.5 61.8H199.5M192.5 66.2H199.5" stroke="#4B5C74" stroke-width="0.9"/><path d="M199.5 61.8l-2.6 -1.6v3.2zM192.5 66.2l2.6 -1.6v3.2z" fill="#4B5C74"/><path d="M173 37l8 8M181 37l-8 8" stroke="#9B8AFB" stroke-width="1.2" stroke-linecap="round"/><rect x="22" y="108" width="22" height="16" rx="3" fill="#0A0F18" stroke="#2A3A52"/><circle cx="33" cy="116" r="2" fill="#56667C"/><rect x="62" y="108" width="22" height="16" rx="3" fill="#0A0F18" stroke="#2A3A52"/><circle cx="73" cy="116" r="2" fill="#56667C"/><rect x="102" y="108" width="22" height="16" rx="3" fill="#0A0F18" stroke="#2A3A52"/><circle cx="113" cy="116" r="2" fill="#56667C"/><rect x="142" y="108" width="22" height="16" rx="3" fill="#0A0F18" stroke="#2A3A52"/><circle cx="153" cy="116" r="2" fill="#56667C"/><rect x="182" y="108" width="22" height="16" rx="3" fill="#0A0F18" stroke="#2A3A52"/><circle cx="193" cy="116" r="2" fill="#56667C"/><path d="M33 108C33 86 101 98 101 80" fill="none" stroke="#3A4B63" stroke-width="0.9" stroke-dasharray="1.5 3"/><path d="M73 108C73 86 177 98 177 80" fill="none" stroke="#3A4B63" stroke-width="0.9" stroke-dasharray="1.5 3"/><path d="M113 108C113 86 139 98 139 80" fill="none" stroke="#3A4B63" stroke-width="0.9" stroke-dasharray="1.5 3"/><path d="M153 108C153 86 215 98 215 80" fill="none" stroke="#3A4B63" stroke-width="0.9" stroke-dasharray="1.5 3"/><path d="M193 108C193 86 177 98 177 80" fill="none" stroke="#3A4B63" stroke-width="0.9" stroke-dasharray="1.5 3"/><text class="mono" x="226" y="24" text-anchor="end" font-size="11" letter-spacing="1" fill="#5B6878">O(1)</text></svg>